<svg xmlns="http://www.w3.org/2000/svg" width="36" height="37" viewBox="0 0 36 37" fill="none">
<g opacity="0.5">
<path d="M31.5 29.1404V18.6404C31.5 11.1846 25.4558 5.1404 18 5.1404V5.1404C10.5442 5.1404 4.5 11.1846 4.5 18.6404V29.1404" stroke="white" stroke-width="2.25" stroke-linecap="round"/>
<path d="M24 23.1404C24 21.4835 25.3431 20.1404 27 20.1404H28.5C30.1569 20.1404 31.5 21.4835 31.5 23.1404V29.1404C31.5 30.7973 30.1569 32.1404 28.5 32.1404H27C25.3431 32.1404 24 30.7973 24 29.1404V23.1404Z" stroke="white" stroke-width="2.25"/>
<path d="M12 23.1404C12 21.4835 10.6569 20.1404 9 20.1404H7.5C5.84315 20.1404 4.5 21.4835 4.5 23.1404V29.1404C4.5 30.7973 5.84315 32.1404 7.5 32.1404H9C10.6569 32.1404 12 30.7973 12 29.1404V23.1404Z" stroke="white" stroke-width="2.25"/>
</g>
</svg>