<svg xmlns="http://www.w3.org/2000/svg" width="27" height="7" viewBox="0 0 27 7" fill="none">
<path opacity="0.5"
 d="M3.82625 6.2025C3.01625 6.2025 2.31875 5.92125 1.73375 5.35875C1.17125 4.77375 0.89 4.07625 0.89 3.26625C0.89 2.45625 1.17125 1.77 1.73375 1.2075C2.31875 0.645 3.01625 0.36375 3.82625 0.36375C4.63625 0.36375 5.3225 0.645 5.885 1.2075C6.47 1.77 6.7625 2.45625 6.7625 3.26625C6.7625 4.07625 6.47 4.77375 5.885 5.35875C5.3225 5.92125 4.63625 6.2025 3.82625 6.2025ZM13.4832 6.2025C12.6732 6.2025 11.9757 5.92125 11.3907 5.35875C10.8282 4.77375 10.547 4.07625 10.547 3.26625C10.547 2.45625 10.8282 1.77 11.3907 1.2075C11.9757 0.645 12.6732 0.36375 13.4832 0.36375C14.2932 0.36375 14.9795 0.645 15.542 1.2075C16.127 1.77 16.4195 2.45625 16.4195 3.26625C16.4195 4.07625 16.127 4.77375 15.542 5.35875C14.9795 5.92125 14.2932 6.2025 13.4832 6.2025ZM23.1402 6.2025C22.3302 6.2025 21.6327 5.92125 21.0477 5.35875C20.4852 4.77375 20.204 4.07625 20.204 3.26625C20.204 2.45625 20.4852 1.77 21.0477 1.2075C21.6327 0.645 22.3302 0.36375 23.1402 0.36375C23.9502 0.36375 24.6365 0.645 25.199 1.2075C25.784 1.77 26.0765 2.45625 26.0765 3.26625C26.0765 4.07625 25.784 4.77375 25.199 5.35875C24.6365 5.92125 23.9502 6.2025 23.1402 6.2025Z" 
 fill="white"/>
</svg>