<svg xmlns="http://www.w3.org/2000/svg" width="36" height="36" viewBox="0 0 36 36" fill="none">
<g opacity="0.5">
<path d="M32.4648 9.06583C33.4048 8.47833 33.4048 7.10933 32.4648 6.52183L24.795 1.7282C23.7959 1.10378 22.5 1.82205 22.5 3.0002V12.5875C22.5 13.7656 23.7959 14.4839 24.795 13.8595L32.4648 9.06583Z" fill="white"/>
<path d="M3.70512 28.5658C2.76512 27.9783 2.76511 26.6093 3.70512 26.0218L11.3749 21.2282C12.374 20.6038 13.6699 21.322 13.6699 22.5002V32.0875C13.6699 33.2656 12.374 33.9839 11.3749 33.3595L3.70512 28.5658Z" fill="white"/>
<path d="M6 16.5V16.5C6 11.5294 10.0294 7.5 15 7.5V7.5H22.5" stroke="white" stroke-width="3" stroke-linecap="round" stroke-linejoin="round"/>
<path d="M28.5 18V18C28.5 22.9706 24.4706 27 19.5 27V27H12" stroke="white" stroke-width="3" stroke-linecap="round" stroke-linejoin="round"/>
</g>
</svg>