<svg xmlns="http://www.w3.org/2000/svg" width="36" height="37" viewBox="0 0 36 37" fill="none">
<g opacity="0.5">
<path d="M23.9996 27.3744C21.634 27.3744 19.4194 26.4574 17.7764 24.9009" stroke="white" stroke-width="3" stroke-linecap="round" stroke-linejoin="round"/>
<path d="M10.7321 12.5993C8.68314 10.6806 5.93456 9.55173 3 9.55173" stroke="white" stroke-width="3" stroke-linecap="round" stroke-linejoin="round"/>
<path d="M33.9389 28.9408C34.8864 28.3544 34.8864 26.9762 33.9389 26.3898L26.2893 21.6559C25.2901 21.0375 24 21.7563 24 22.9315V32.3992C24 33.5743 25.29 34.2931 26.2893 33.6747L33.9389 28.9408Z" fill="white"/>
<path d="M24.0005 9.55171V9.55171C20.3649 9.55171 17.0834 11.731 15.6733 15.082L13.4095 20.4615C11.6468 24.6503 7.54503 27.3744 3.00049 27.3744V27.3744" stroke="white" stroke-width="3" stroke-linecap="round" stroke-linejoin="round"/>
<path d="M32.4394 11.1182C33.3869 10.5318 33.3869 9.15351 32.4394 8.56713L24.7898 3.83328C23.7905 3.21488 22.5005 3.93363 22.5005 5.10879V14.5765C22.5005 15.7517 23.7905 16.4704 24.7898 15.852L32.4394 11.1182Z" fill="white"/>
</g>
</svg>