<svg xmlns="http://www.w3.org/2000/svg" width="30" height="31" viewBox="0 0 30 31" fill="none">
<path d="M18.7496 7.23737C18.7496 4.75449 15.8327 3.41973 13.9538 5.04282L9.12621 9.21315C8.59944 9.6682 7.92657 9.91859 7.23047 9.9186L4.97458 9.91861C2.97256 9.91863 1.34961 11.5416 1.34961 13.5436V18.3184C1.34961 20.3205 2.97258 21.9434 4.97461 21.9434H7.23052C7.92662 21.9434 8.59951 22.1938 9.12628 22.6489L13.9538 26.8192C15.8327 28.4422 18.7496 27.1075 18.7496 24.6246V15.931V7.23737Z" stroke="white" stroke-width="2.175"/>
<path d="M23.1001 20.2817C24.0106 19.07 24.5501 17.5638 24.5501 15.9317C24.5501 14.2996 24.0106 12.7934 23.1001 11.5817" stroke="white" stroke-width="2.175" stroke-linecap="round"/>
<path d="M25.9995 24.6317C27.8205 22.2083 28.8995 19.196 28.8995 15.9317C28.8995 12.6675 27.8205 9.65514 25.9995 7.23172" stroke="white" stroke-width="2.175" stroke-linecap="round"/>
</svg>